<mxfile host="app.diagrams.net" modified="2023-09-12T19:35:57.387Z" agent="Mozilla/5.0 (Windows NT 10.0; Win64; x64; rv:109.0) Gecko/20100101 Firefox/117.0" version="21.6.6" etag="_uo_VgdmLIfZNCf-Hifc" type="github">
  <diagram name="Page-1" id="PoMAV4WAgS07IKXhG-20">
    <mxGraphModel>
      <root>
        <mxCell id="0" />
        <mxCell id="1" parent="0" />
      </root>
    </mxGraphModel>
  </diagram>
</mxfile>
